# xmcd
# 
# Track frame offsets:
#     150
#     12051
#     22264
#     35491
#     49026
#     63179
#     77557
#     90485
#     107717
#     119151
#     134576
#     148889
#     165902
#     175340
#     189647
#     204791
#     217321
#     236246
#     254872
#     269169
#     293979
#     309336
#     328283
# 
# Disc length: 4582
# 
# Revision: 2
# Processed by: cddbd v1.5.2PL0 Copyright (c) Steve Scherf et al.
# Submitted via: fre:ac v1.0.17
# 
DISCID=6911e417
DTITLE=Various Artist - Atlantic Gold: 75 Soul Classics From The Atlantic Vaults [Disc 3]
DYEAR=2004
DGENRE=Soul
TTITLE0=Sam and Dave - Soul Man
TTITLE1=Aretha Franklin - Think
TTITLE2=King Curtis - Memphis Soul Stew
TTITLE3=Otis Redding and Carla Thomas - Tramp
TTITLE4=Archie Bells and The Drells - Tighten Up
TTITLE5=Aretha Franklin - Do Right Woman, Do Right Man
TTITLE6=William Bell - A Tribute To A King
TTITLE7=Brook Benton - Rainy Night In Georgia
TTITLE8=Clarence Carter - Slip Away
TTITLE9=Donny Hathaway - The Ghetto
TTITLE10=The beginning of the end - Funky Nassau (Part 1)
TTITLE11=The Spinners - Ghetto Child
TTITLE12=Archie Bells and the Drells - Here I Go Again
TTITLE13=Aretha Franklin - Rock Steady
TTITLE14=The Persuaders - Thin Line Between Love And Hate
TTITLE15=Betty Wright - Clean Up Woman
TTITLE16=The Spinners - Could It Be I'm Falling In Love
TTITLE17=Blue Magic - Sideshow
TTITLE18=The Spinners - I'll Be Around
TTITLE19=Major Harris - Love Won't Let Me Wait
TTITLE20=Bettye Swan - Kiss My Love Goodbye
TTITLE21=Ben E. King - Supernatural Thing (Part 1)
TTITLE22=Aretha Franklin - Until You Come Back To Me (That's What I Am Going To Do)
EXTD=
EXTT0=
EXTT1=
EXTT2=
EXTT3=
EXTT4=
EXTT5=
EXTT6=
EXTT7=
EXTT8=
EXTT9=
EXTT10=
EXTT11=
EXTT12=
EXTT13=
EXTT14=
EXTT15=
EXTT16=
EXTT17=
EXTT18=
EXTT19=
EXTT20=
EXTT21=
EXTT22=
PLAYORDER=
